<svg width="1033" height="223" viewBox="0 0 1033 223" xmlns="http://www.w3.org/2000/svg"><title>R-лого</title><g fill="none" fill-rule="evenodd"><path d="M394.355 47.156c0 5.629-.708 10.655-2.104 15.104-1.385 4.396-3.265 8.32-5.634 11.727a40.4 40.4 0 0 1-8.229 8.68c-3.073 2.398-6.313 4.381-9.723 5.934a47.188 47.188 0 0 1-10.238 3.367c-3.465.675-6.718 1.042-9.758 1.042l51.561 44.526h-38.15L310.638 93.01h-17.749V68.305h55.783c3.113-.253 5.955-.896 8.529-1.937 2.55-1.037 4.757-2.455 6.645-4.217a18.335 18.335 0 0 0 4.307-6.412c1.001-2.494 1.523-5.342 1.523-8.584V31.57c0-1.392-.162-2.433-.522-3.177-.361-.715-.805-1.267-1.323-1.588-.557-.358-1.107-.585-1.724-.646a15.545 15.545 0 0 0-1.654-.101l-81.46-.002v111.478h-24.684V13.843c0-1.711.318-3.339.974-4.857A12.214 12.214 0 0 1 261.873 5c1.1-1.131 2.426-2.008 3.95-2.651 1.521-.625 3.17-.938 4.931-.938h93.699c5.519 0 10.127 1.002 13.938 2.973 3.819 2.009 6.896 4.51 9.271 7.521 2.358 2.978 4.081 6.219 5.11 9.721 1.075 3.468 1.588 6.744 1.588 9.785l-.005 15.745z" fill="#477FA5"/><path d="M1032.442 137.523h-24.693V80.556c0-3.203-.547-6.124-1.654-8.682-1.1-2.557-2.596-4.756-4.492-6.604-1.919-1.822-4.115-3.242-6.721-4.216-2.552-.974-5.291-1.458-8.286-1.458h-43.185v77.926h-24.694V47.158c0-1.723.327-3.306.973-4.803a11.77 11.77 0 0 1 2.657-3.89 13.104 13.104 0 0 1 3.991-2.617 12.788 12.788 0 0 1 4.846-.946h55.636c3.104 0 6.366.36 9.807 1.043 3.475.709 6.871 1.813 10.278 3.366 3.36 1.56 6.6 3.529 9.653 5.899 3.073 2.363 5.788 5.246 8.174 8.617 2.396 3.395 4.277 7.324 5.662 11.731 1.381 4.431 2.051 9.429 2.051 14.995l-.003 56.97zM873.058 69.641c0-3.399-.852-5.928-2.567-7.587-1.718-1.65-4.167-2.454-7.409-2.454l-44.335-.002c-3.273 0-5.759.845-7.479 2.494-1.717 1.685-2.55 4.147-2.55 7.353v33.438c0 3.214.833 5.674 2.55 7.396 1.717 1.705 4.2 2.557 7.479 2.557l44.335.002c3.367 0 5.865-.852 7.511-2.557 1.653-1.723 2.466-4.184 2.466-7.396V69.641h-.001zm24.687 33.24c0 4.216-.558 8.044-1.628 11.444-1.063 3.365-2.486 6.349-4.276 8.904-1.779 2.571-3.813 4.762-6.157 6.547a35.465 35.465 0 0 1-7.358 4.401 34.664 34.664 0 0 1-7.801 2.526c-2.611.548-5.078.816-7.441.816h-44.521c-3.4 0-7.146-.615-11.18-1.803-4.062-1.216-7.818-3.182-11.241-5.943-3.475-2.752-6.355-6.305-8.652-10.724-2.302-4.407-3.474-9.783-3.474-16.173V69.445c0-6.315 1.172-11.658 3.474-16.072 2.292-4.406 5.182-7.965 8.652-10.719 3.428-2.759 7.188-4.733 11.241-5.933 4.047-1.198 7.777-1.817 11.18-1.817l44.521-.002c6.346 0 11.722 1.139 16.129 3.405 4.444 2.304 8.044 5.151 10.746 8.618 2.733 3.436 4.705 7.193 5.938 11.247 1.229 4.047 1.847 7.802 1.847 11.271v33.438h.001zM762.47 137.523h-24.706V34.904h24.706v102.619zm-42.356-34.642c0 4.216-.563 8.044-1.628 11.444-1.08 3.365-2.499 6.349-4.276 8.904a28.212 28.212 0 0 1-6.157 6.547 34.703 34.703 0 0 1-7.358 4.401c-2.556 1.165-5.144 2.017-7.771 2.526-2.617.548-5.111.816-7.441.816h-66.855V112.83l66.647.002c3.35 0 5.877-.85 7.587-2.555 1.724-1.723 2.567-4.184 2.567-7.396-.292-6.573-3.625-9.879-9.94-9.879L647.204 93c-5.428 0-10.069-.936-13.869-2.854-3.768-1.88-6.861-4.277-9.222-7.127-2.4-2.848-4.086-5.895-5.148-9.203-1.036-3.266-1.565-6.35-1.565-9.197 0-5.512.979-10.145 2.962-13.898 1.948-3.762 4.431-6.839 7.373-9.17 2.995-2.337 6.229-4.02 9.699-5.096 3.496-1.03 6.738-1.555 9.771-1.555l60.674.002v24.694h-60.471c-1.271 0-2.27.124-2.982.423-.748.287-1.256.646-1.61 1.133a3.316 3.316 0 0 0-.625 1.519 13.907 13.907 0 0 0-.096 1.555c.063 1.048.265 1.823.546 2.369.32.586.708 1.007 1.204 1.267.481.221.996.389 1.608.418.599.027 1.178.027 1.752.027h38.284c6.315 0 11.688 1.139 16.127 3.439 4.414 2.272 8 5.117 10.729 8.588 2.725 3.429 4.693 7.189 5.922 11.236 1.228 4.051 1.847 7.816 1.847 11.311zm-122.85 34.642h-24.695V34.904h24.695v102.619zM561.018 1.404l-64.473 131.291c-1.02 2.008-2.505 3.631-4.511 4.863-1.98 1.262-4.178 1.879-6.592 1.879-2.354 0-4.532-.617-6.503-1.879-2.004-1.232-3.521-2.855-4.599-4.863L409.967 1.404h27.618l47.854 98.043 48.029-98.043h27.55z" fill="#19466C"/><path d="M394.768 81.195l16.57-16.561 16.561 16.561-16.561 16.573-16.57-16.573zM109.595 2.697l22.031 22.049c2.806 2.805 2.806 7.386 0 10.207L109.595 56.99c-2.815 2.797-7.402 2.797-10.22 0L77.344 34.953c-2.811-2.819-2.814-7.402 0-10.207L99.375 2.697c2.817-2.804 7.403-2.804 10.22 0zM34.354 77.939L56.38 99.976c2.814 2.809 2.814 7.396 0 10.211l-22.025 22.039c-2.814 2.805-7.402 2.805-10.211 0L2.105 110.189c-2.803-2.814-2.814-7.402 0-10.211l22.038-22.039c2.815-2.809 7.396-2.809 10.211 0zM71.973 40.324l22.031 22.033c2.806 2.809 2.806 7.401 0 10.211L71.973 94.601c-2.814 2.809-7.396 2.809-10.206 0L39.723 72.568c-2.806-2.81-2.806-7.402 0-10.211l22.044-22.033c2.809-2.815 7.39-2.815 10.206 0z" fill="#477FA5"/><path d="M184.821 77.939l22.044 22.037c2.811 2.809 2.811 7.396 0 10.211l-97.271 97.272c-2.814 2.804-7.402 2.804-10.213 0l-27.133-27.144L39.727 147.8c-2.811-2.815-2.811-7.396 0-10.211l22.045-22.033c2.809-2.819 7.396-2.819 10.206 0l27.4 27.409c2.815 2.809 7.402 2.809 10.213 0l65.027-65.029c2.819-2.811 7.395-2.811 10.203.003z" fill="#19466C"/><path d="M147.209 40.324l22.038 22.033c2.797 2.809 2.797 7.401 0 10.211l-59.658 59.646c-2.809 2.815-7.4 2.815-10.211 0l-22.031-22.026c-2.811-2.809-2.811-7.402 0-10.211l59.649-59.652c2.812-2.816 7.403-2.816 10.213-.001z" fill="#477FA5"/><path d="M572.576 1.404h24.691v22.321l-24.691-.001V1.404zM737.767 1.404h24.708v22.321l-24.708-.001V1.404z" fill="#19466C"/><g stroke="#19466C" stroke-width="2" fill="#19466C"><path d="M272.98 165.253l-14.218 42.084h5.588l4.347-13.237h14.838l4.47 13.237h5.774l-14.28-42.084h-6.519zm-3.166 24.602l4.097-12.176a99.87 99.87 0 0 0 2.049-7.618h.186c.621 2.436 1.242 4.933 2.112 7.681l4.159 12.113h-12.603zM348.733 169.875l-5.34 1.686v5.557h-4.656v4.184h4.656v16.422c0 3.559.621 6.243 2.111 7.93 1.305 1.436 3.353 2.31 5.899 2.31 2.111 0 3.787-.374 4.842-.749l-.248-4.184c-.808.25-1.676.375-3.167.375-3.041 0-4.097-2.123-4.097-5.869V181.3h7.823v-4.184h-7.823v-7.241zM557.608 169.875l-5.34 1.686v5.557h-4.656v4.184h4.656v16.422c0 3.559.621 6.243 2.111 7.93 1.305 1.436 3.353 2.31 5.899 2.31 2.111 0 3.787-.374 4.842-.749l-.248-4.184c-.808.25-1.676.375-3.167.375-3.041 0-4.097-2.123-4.097-5.869V181.3h7.823v-4.184h-7.823v-7.241zM989.577 169.875l-5.34 1.686v5.557h-4.656v4.184h4.656v16.422c0 3.559.621 6.243 2.111 7.93 1.305 1.436 3.353 2.31 5.899 2.31 2.111 0 3.787-.374 4.842-.749l-.248-4.184c-.808.25-1.676.375-3.167.375-3.041 0-4.097-2.123-4.097-5.869V181.3h7.823v-4.184h-7.823v-7.241zM308.807 169.875l-5.34 1.686v5.557h-4.656v4.184h4.656v16.422c0 3.559.621 6.243 2.111 7.93 1.305 1.436 3.353 2.31 5.899 2.31 2.111 0 3.787-.374 4.842-.749l-.248-4.184c-.808.25-1.676.375-3.167.375-3.041 0-4.097-2.123-4.097-5.869V181.3h7.823v-4.184h-7.823v-7.241zM380.896 176.43c-2.049 0-3.974.562-5.588 1.561-1.677.874-3.042 2.311-3.912 3.872h-.125v-18.857h-5.463v44.332h5.463v-18.232c0-1.062.063-1.873.373-2.622 1.056-2.997 3.787-5.495 7.327-5.495 5.153 0 6.954 4.059 6.954 8.929v17.421h5.464v-17.982c0-10.43-6.458-12.927-10.493-12.927zM415.356 176.43c-8.755 0-14.156 7.181-14.156 16.297 0 9.054 5.587 15.234 14.777 15.234 4.78 0 8.133-1.062 10.057-1.936l-.994-3.934c-1.986.874-4.408 1.562-8.319 1.562-5.463 0-10.122-3.06-10.244-10.428h21.046c.125-.624.187-1.436.187-2.56.002-5.556-2.543-14.235-12.354-14.235zm-8.817 12.862c.436-3.809 2.795-8.929 8.383-8.929 6.084 0 7.574 5.433 7.512 8.929h-15.895zM458.821 183.048h-.187l-.249-5.932h-4.781c.187 2.81.249 5.869.249 9.429v20.792h5.463v-16.172c0-.874.062-1.748.187-2.56.745-4.059 3.477-6.993 7.326-6.993.745 0 1.304.063 1.863.125v-5.183c-.496-.063-.932-.125-1.49-.125-3.662.001-7.015 2.561-8.381 6.619zM489.37 176.43c-8.257 0-14.901 5.932-14.901 16.047 0 9.553 6.333 15.547 14.405 15.547h.062c7.14 0 14.901-4.87 14.901-16.109-.001-9.178-5.837-15.485-14.467-15.485zm-.249 27.473h-.062c-5.277 0-9.002-4.995-9.002-11.613 0-5.744 2.793-11.738 9.188-11.738 6.458 0 9.002 6.431 9.002 11.551.001 6.867-3.91 11.8-9.126 11.8zM526.562 176.43c-8.257 0-14.9 5.932-14.9 16.047 0 9.553 6.333 15.547 14.403 15.547h.064c7.138 0 14.9-4.87 14.9-16.109 0-9.178-5.837-15.485-14.467-15.485zm-.249 27.473h-.062c-5.276 0-9.003-4.995-9.003-11.613 0-5.744 2.794-11.738 9.189-11.738 6.456 0 9.002 6.431 9.002 11.551.001 6.867-3.909 11.8-9.126 11.8zM603.68 176.43c-8.258 0-14.901 5.932-14.901 16.047 0 9.553 6.333 15.547 14.405 15.547h.063c7.139 0 14.901-4.87 14.901-16.109-.001-9.178-5.837-15.485-14.468-15.485zm-.247 27.473h-.063c-5.278 0-9.002-4.995-9.002-11.613 0-5.744 2.793-11.738 9.188-11.738 6.456 0 9.003 6.431 9.003 11.551 0 6.867-3.911 11.8-9.126 11.8zM632.18 165.128c-2.544 2.436-3.538 6.307-3.538 10.553v1.436h-4.159v4.184h4.159v26.037h5.464V181.3h7.203v-4.184h-7.266v-1.623c0-4.621 1.241-8.741 5.837-8.741 1.613 0 2.67.312 3.539.687l.683-4.246c-1.057-.437-2.67-.874-4.657-.874-2.482 0-5.216.811-7.265 2.809zM678.19 194.849c-.746 2.186-1.368 4.496-1.927 6.307h-.122a78.982 78.982 0 0 0-1.988-6.182l-6.52-17.857h-5.961l11.052 27.848c.312.688.436 1.124.436 1.437 0 .313-.187.749-.436 1.312-1.302 2.81-3.105 4.933-4.593 6.119-1.613 1.373-3.416 2.247-4.78 2.685l1.364 4.558c1.367-.25 3.975-1.187 6.707-3.496 3.725-3.31 6.394-8.555 10.304-18.919l8.198-21.542h-5.775l-5.959 17.73zM1019.756 194.849c-.746 2.186-1.368 4.496-1.927 6.307h-.122a78.982 78.982 0 0 0-1.988-6.182l-6.52-17.857h-5.961l11.052 27.848c.312.688.436 1.124.436 1.437 0 .313-.187.749-.436 1.312-1.302 2.81-3.105 4.933-4.593 6.119-1.613 1.373-3.416 2.247-4.78 2.685l1.364 4.558c1.367-.25 3.975-1.187 6.707-3.496 3.725-3.31 6.394-8.555 10.304-18.919l8.198-21.542h-5.775l-5.959 17.73zM710.105 176.43c-8.259 0-14.9 5.932-14.9 16.047 0 9.553 6.332 15.547 14.403 15.547h.063c7.141 0 14.9-4.87 14.9-16.109 0-9.178-5.836-15.485-14.466-15.485zm-.249 27.473h-.062c-5.278 0-9.004-4.995-9.004-11.613 0-5.744 2.795-11.738 9.19-11.738 6.457 0 9.003 6.431 9.003 11.551.001 6.867-3.911 11.8-9.127 11.8zM759.716 177.117h-5.464v18.482c0 1.062-.187 2.061-.497 2.81-.992 2.497-3.538 5.058-7.202 5.058-4.905 0-6.706-3.934-6.706-9.678v-16.672h-5.463v17.671c0 10.552 5.65 13.236 10.368 13.236 5.341 0 8.568-3.185 9.936-5.619h.123l.311 4.933h4.845c-.188-2.373-.25-5.12-.25-8.305v-21.916h-.001zM776.854 183.048h-.185l-.249-5.932h-4.78c.187 2.81.247 5.869.247 9.429v20.792h5.464v-16.172c0-.874.063-1.748.187-2.56.744-4.059 3.477-6.993 7.326-6.993.745 0 1.304.063 1.861.125v-5.183c-.495-.063-.93-.125-1.489-.125-3.664.001-7.016 2.561-8.382 6.619zM821.25 189.792c-3.911-1.562-5.651-2.686-5.651-5.183 0-2.248 1.74-4.121 4.967-4.121 2.796 0 4.968 1.062 6.147 1.748l1.303-3.934c-1.612-1.062-4.284-1.873-7.324-1.873-6.396 0-10.37 3.996-10.37 8.866 0 3.559 2.546 6.557 8.011 8.555 3.974 1.498 5.526 2.872 5.526 5.494 0 2.56-1.863 4.496-5.775 4.496-2.73 0-5.587-1.124-7.265-2.123l-1.305 4.121c2.111 1.248 5.154 2.122 8.443 2.122 7.019 0 11.179-3.746 11.179-9.116 0-4.494-2.733-7.116-7.886-9.052zM851.238 176.43c-8.753 0-14.154 7.181-14.154 16.297 0 9.054 5.587 15.234 14.776 15.234 4.781 0 8.134-1.062 10.059-1.936l-.994-3.934c-1.986.874-4.408 1.562-8.319 1.562-5.464 0-10.12-3.06-10.244-10.428h21.048c.124-.624.186-1.436.186-2.56-.001-5.556-2.548-14.235-12.358-14.235zm-8.815 12.862c.436-3.809 2.793-8.929 8.384-8.929 6.083 0 7.572 5.433 7.511 8.929h-15.895zM887.438 180.801c2.98 0 5.03.749 6.334 1.436l1.24-4.184c-1.489-.812-4.346-1.623-7.574-1.623-9.809 0-16.143 6.806-16.143 16.109 0 9.241 5.899 15.422 14.965 15.422 4.032 0 7.2-1.062 8.629-1.748l-.934-4.121c-1.551.688-3.599 1.437-6.702 1.437-5.962 0-10.432-4.309-10.432-11.302 0-6.244 3.725-11.426 10.617-11.426zM929.537 177.117h-5.465v18.482c0 1.062-.186 2.061-.495 2.81-.993 2.497-3.539 5.058-7.203 5.058-4.905 0-6.706-3.934-6.706-9.678v-16.672h-5.463v17.671c0 10.552 5.65 13.236 10.368 13.236 5.341 0 8.568-3.185 9.934-5.619h.125l.311 4.933h4.843c-.187-2.373-.248-5.12-.248-8.305v-21.916h-.001zM946.673 183.048h-.183l-.25-5.932h-4.781c.188 2.81.249 5.869.249 9.429v20.792h5.463v-16.172c0-.874.062-1.748.188-2.56.744-4.059 3.477-6.993 7.327-6.993.744 0 1.303.063 1.861.125v-5.183c-.496-.063-.932-.125-1.49-.125-3.663.001-7.016 2.561-8.384 6.619zM968.097 165.191c-2.05 0-3.416 1.499-3.416 3.435 0 1.811 1.305 3.371 3.293 3.371h.062c2.11 0 3.413-1.561 3.413-3.371-.001-1.936-1.365-3.435-3.352-3.435zM965.364 177.117h5.463v30.221h-5.463z"/></g></g></svg>